<svg width="49" height="49" viewBox="0 0 49 49" fill="none" xmlns="http://www.w3.org/2000/svg">
<path d="M31.09 13.6784L35.86 16.6184L24.5 34.9084L14.17 27.9084L17.28 23.3084L22.8 27.0184L31.06 13.6384L31.09 13.6784Z" stroke="black" stroke-linecap="round" stroke-linejoin="round"/>
<path d="M24.5 4.72852C24.5 4.72852 13.24 6.72852 9.25 6.72852V26.7285C9.25623 28.1334 9.52765 29.5244 10.05 30.8285C10.5472 32.1183 11.2202 33.3331 12.05 34.4385C12.8876 35.5483 13.8284 36.5763 14.86 37.5085C15.8125 38.391 16.8141 39.219 17.86 39.9885C18.7914 40.6568 19.7559 41.2776 20.75 41.8485C21.75 42.4385 22.46 42.8485 22.88 43.0385L23.88 43.5285C24.0736 43.6209 24.2855 43.6688 24.5 43.6688C24.7145 43.6688 24.9264 43.6209 25.12 43.5285L26.12 43.0385C26.54 42.8385 27.25 42.4385 28.25 41.8485C29.2441 41.2776 30.2086 40.6568 31.14 39.9885C32.1859 39.219 33.1875 38.391 34.14 37.5085C35.1716 36.5763 36.1125 35.5483 36.95 34.4385C37.7798 33.3331 38.4528 32.1183 38.95 30.8285C39.4724 29.5244 39.7438 28.1334 39.75 26.7285V6.72852C35.76 6.75852 24.5 4.72852 24.5 4.72852Z" stroke="black" stroke-linecap="round" stroke-linejoin="round"/>
</svg>
