<svg width="49" height="49" viewBox="0 0 49 49" fill="none" xmlns="http://www.w3.org/2000/svg">
<path d="M14.634 36.2286V20.3386H34.366M19.779 36.2286H34.366V25.6786" stroke="black" stroke-linecap="round" stroke-linejoin="round"/>
<path d="M19.746 26.8345L23.881 30.9695L29.254 25.5975M20.32 16.3155C20.32 15.2316 20.7506 14.192 21.5171 13.4256C22.2835 12.6591 23.3231 12.2285 24.407 12.2285C25.4909 12.2285 26.5305 12.6591 27.2969 13.4256C28.0634 14.192 28.494 15.2316 28.494 16.3155V20.3385M20.322 16.2305V20.3385" stroke="black" stroke-linecap="round" stroke-linejoin="round"/>
<path d="M30.788 44.7945C25.8123 46.3194 20.4526 45.9891 15.7017 43.865C10.9508 41.7409 7.13081 37.9669 4.94932 33.2421C2.76783 28.5173 2.37272 23.1619 3.83718 18.1681C5.30164 13.1743 8.52642 8.88054 12.9141 6.08219C17.3018 3.28384 22.5551 2.1706 27.7007 2.94869C32.8463 3.72678 37.5355 6.34347 40.8996 10.314C44.2638 14.2845 46.0748 19.3398 45.9973 24.5434C45.9198 29.7469 43.9589 34.746 40.478 38.6145" stroke="black" stroke-linecap="round" stroke-linejoin="round"/>
</svg>
