<svg width="49" height="49" viewBox="0 0 49 49" fill="none" xmlns="http://www.w3.org/2000/svg">
<path d="M24.5 13.4924L31.788 17.7024L24.5 21.9094L17.212 17.7004L24.5 13.4924Z" stroke="black" stroke-linecap="round" stroke-linejoin="round"/>
<path d="M17.212 17.7014V26.1194L24.5 30.3294M24.5 30.3294L31.788 26.1194V17.7014M24.5 30.3294V21.9104" stroke="black" stroke-linecap="round" stroke-linejoin="round"/>
<path d="M41.405 21.6336C41.4052 18.5729 40.5744 15.5696 39.0014 12.9441C37.4283 10.3187 35.172 8.16948 32.4732 6.72592C29.7743 5.28237 26.7342 4.5986 23.6771 4.74758C20.6201 4.89656 17.6609 5.87269 15.1151 7.57182C12.5694 9.27096 10.5328 11.6293 9.22248 14.3953C7.91218 17.1614 7.37739 20.2312 7.67519 23.2773C7.97298 26.3235 9.09218 29.2316 10.9134 31.6915C12.7346 34.1514 15.1894 36.0707 18.016 37.2446L24.5 43.7286L30.984 37.2446C34.0688 35.963 36.7048 33.7963 38.5594 31.0179C40.4139 28.2396 41.4047 24.9741 41.405 21.6336Z" stroke="black" stroke-linecap="round" stroke-linejoin="round"/>
</svg>
