<svg width="49" height="49" viewBox="0 0 49 49" fill="none" xmlns="http://www.w3.org/2000/svg">
<path d="M24.5 45.7285C36.3741 45.7285 46 36.1026 46 24.2285C46 12.3544 36.3741 2.72852 24.5 2.72852C12.6259 2.72852 3 12.3544 3 24.2285C3 36.1026 12.6259 45.7285 24.5 45.7285Z" stroke="black" stroke-linecap="round" stroke-linejoin="round"/>
<path d="M13 23.9125C13 23.2602 13.1934 22.6226 13.5558 22.0803C13.9182 21.5379 14.4333 21.1152 15.0359 20.8656C15.6385 20.616 16.3016 20.5507 16.9414 20.678C17.5811 20.8052 18.1688 21.1193 18.63 21.5805L21.842 24.7925L30.372 16.2625C30.8334 15.8019 31.421 15.4884 32.0604 15.3616C32.6999 15.2348 33.3627 15.3003 33.9649 15.55C34.5672 15.7996 35.0819 16.2222 35.4441 16.7642C35.8064 17.3063 35.9998 17.9436 36 18.5955C36 19.4705 35.652 20.3095 35.034 20.9285L23.483 32.4785C23.2675 32.6941 23.0116 32.8652 22.7299 32.9819C22.4483 33.0986 22.1464 33.1586 21.8415 33.1586C21.5366 33.1586 21.2347 33.0986 20.9531 32.9819C20.6714 32.8652 20.4155 32.6941 20.2 32.4785L13.966 26.2455C13.6596 25.9392 13.4166 25.5754 13.2509 25.1751C13.0851 24.7748 12.9999 24.3458 13 23.9125Z" stroke="black" stroke-linecap="round" stroke-linejoin="round"/>
</svg>
