<svg width="49" height="49" viewBox="0 0 49 49" fill="none" xmlns="http://www.w3.org/2000/svg">
<path d="M26.6 25.4864V28.0654M35.094 25.3344V27.5094M42.056 39.5254L20.034 42.6354C19.8882 42.6561 19.7397 42.6472 19.5974 42.6093C19.455 42.5714 19.3218 42.5052 19.2056 42.4147C19.0894 42.3241 18.9927 42.2111 18.9211 42.0824C18.8495 41.9537 18.8046 41.8119 18.789 41.6654L16.437 19.3544C16.4208 19.2023 16.4366 19.0486 16.4834 18.9029C16.5301 18.7573 16.6068 18.6231 16.7085 18.5089C16.8102 18.3947 16.9347 18.303 17.0739 18.2397C17.2132 18.1764 17.3641 18.1429 17.517 18.1414L41.755 17.9124C41.8994 17.911 42.0427 17.938 42.1766 17.9921C42.3105 18.0461 42.4324 18.1261 42.5353 18.2273C42.6383 18.3286 42.7202 18.4492 42.7764 18.5822C42.8327 18.7152 42.8621 18.858 42.863 19.0024L43 38.4314C43.004 38.9814 42.6 39.4484 42.056 39.5254Z" stroke="black" stroke-linecap="round" stroke-linejoin="round"/>
<path d="M34.843 32.5746C33.406 33.4026 32.917 33.7726 32.069 34.5626C30.879 34.1056 29.785 33.3346 28.272 33.1066M24.308 13.7156C24.522 13.2596 25.272 11.9996 27.068 10.0976C30.176 6.77457 31.328 5.80957 31.328 5.80957C31.328 5.80957 32.748 6.55957 34.598 8.91857C36.474 11.2766 36.528 12.7506 36.528 12.7506C36.528 12.7506 37.198 12.6706 31.731 14.4386C28.676 15.4296 27.363 15.5906 26.8 15.5906M12.319 41.8276L8.82901 40.2276C8.65798 40.1493 8.50943 40.0292 8.39706 39.8784C8.28468 39.7275 8.2121 39.5508 8.18601 39.3646L6.01101 23.8216C5.95501 23.4216 6.11901 23.0216 6.44101 22.7756L9.591 20.3696C9.76882 20.2337 9.97969 20.1478 10.2018 20.1206C10.424 20.0935 10.6493 20.1262 10.8546 20.2152C11.0599 20.3043 11.2377 20.4466 11.3696 20.6274C11.5015 20.8082 11.5828 21.0209 11.605 21.2436L13.571 40.9336C13.5864 41.0889 13.5606 41.2455 13.4961 41.3876C13.4316 41.5297 13.3308 41.6523 13.2038 41.743C13.0768 41.8337 12.9281 41.8892 12.7728 41.9041C12.6174 41.9189 12.4609 41.8925 12.319 41.8276Z" stroke="black" stroke-linecap="round" stroke-linejoin="round"/>
<path d="M27.47 18.0565V18.0025C27.47 17.1185 27.229 16.2875 26.8 15.5905C26.237 14.6805 25.353 13.9825 24.308 13.7145C23.9609 13.607 23.5994 13.5531 23.236 13.5545C22.807 13.5545 22.378 13.6075 22.003 13.7685C20.851 14.1165 19.94 14.9485 19.43 16.0465C19.1499 16.6606 19.004 17.3275 19.002 18.0025V18.1365" stroke="black" stroke-linecap="round" stroke-linejoin="round"/>
<path d="M19.43 16.0466C18.868 15.9396 17.93 15.6976 16.295 15.1626C13.991 14.4126 12.865 13.6346 12.865 13.6346C12.865 13.6346 12.409 12.2416 13.91 10.3386C15.411 8.4356 16.563 7.8186 16.563 7.8186C16.563 7.8186 17.474 8.5966 19.993 11.3036C21.253 12.6166 21.789 13.3936 22.003 13.7686H22.03" stroke="black" stroke-linecap="round" stroke-linejoin="round"/>
</svg>
