<svg width="16" height="13" viewBox="0 0 16 13" fill="none" xmlns="http://www.w3.org/2000/svg">
<path d="M15.6969 4.18076C15.8187 4.08389 16 4.17451 16 4.32764V10.7183C16 11.5464 15.3281 12.2183 14.5 12.2183H1.5C0.671875 12.2183 0 11.5464 0 10.7183V4.33076C0 4.17451 0.178125 4.08701 0.303125 4.18389C1.00312 4.72764 1.93125 5.41826 5.11875 7.73389C5.77813 8.21514 6.89062 9.22764 8 9.22139C9.11563 9.23076 10.25 8.19639 10.8844 7.73389C14.0719 5.41826 14.9969 4.72451 15.6969 4.18076ZM8 8.21826C8.725 8.23076 9.76875 7.30576 10.2937 6.92451C14.4406 3.91514 14.7562 3.65264 15.7125 2.90264C15.8937 2.76201 16 2.54326 16 2.31201V1.71826C16 0.890137 15.3281 0.218262 14.5 0.218262H1.5C0.671875 0.218262 0 0.890137 0 1.71826V2.31201C0 2.54326 0.10625 2.75889 0.2875 2.90264C1.24375 3.64951 1.55938 3.91514 5.70625 6.92451C6.23125 7.30576 7.275 8.23076 8 8.21826Z" fill="#C8C8C8"/>
</svg>
