<svg width="25" height="24" viewBox="0 0 25 24" fill="none" xmlns="http://www.w3.org/2000/svg">
<path d="M2.70349 6C2.70349 5.73478 2.80885 5.48043 2.99638 5.29289C3.18392 5.10536 3.43827 5 3.70349 5H21.7035C21.9687 5 22.2231 5.10536 22.4106 5.29289C22.5981 5.48043 22.7035 5.73478 22.7035 6C22.7035 6.26522 22.5981 6.51957 22.4106 6.70711C22.2231 6.89464 21.9687 7 21.7035 7H3.70349C3.43827 7 3.18392 6.89464 2.99638 6.70711C2.80885 6.51957 2.70349 6.26522 2.70349 6ZM2.70349 12.032C2.70349 11.7668 2.80885 11.5124 2.99638 11.3249C3.18392 11.1374 3.43827 11.032 3.70349 11.032H21.7035C21.9687 11.032 22.2231 11.1374 22.4106 11.3249C22.5981 11.5124 22.7035 11.7668 22.7035 12.032C22.7035 12.2972 22.5981 12.5516 22.4106 12.7391C22.2231 12.9266 21.9687 13.032 21.7035 13.032H3.70349C3.43827 13.032 3.18392 12.9266 2.99638 12.7391C2.80885 12.5516 2.70349 12.2972 2.70349 12.032ZM3.70349 17.065C3.43827 17.065 3.18392 17.1704 2.99638 17.3579C2.80885 17.5454 2.70349 17.7998 2.70349 18.065C2.70349 18.3302 2.80885 18.5846 2.99638 18.7721C3.18392 18.9596 3.43827 19.065 3.70349 19.065H21.7035C21.9687 19.065 22.2231 18.9596 22.4106 18.7721C22.5981 18.5846 22.7035 18.3302 22.7035 18.065C22.7035 17.7998 22.5981 17.5454 22.4106 17.3579C22.2231 17.1704 21.9687 17.065 21.7035 17.065H3.70349Z" fill="black"/>
</svg>
