<svg width="16" height="16" viewBox="0 0 16 16" fill="none" xmlns="http://www.w3.org/2000/svg">
<path d="M14.1609 0.565918C14.5516 0.565918 14.8836 0.702637 15.157 0.976074C15.4305 1.24951 15.5672 1.58154 15.5672 1.97217V14.1597C15.5672 14.5503 15.4305 14.8823 15.157 15.1558C14.8836 15.4292 14.5516 15.5659 14.1609 15.5659H1.97345C1.58282 15.5659 1.25079 15.4292 0.977356 15.1558C0.703918 14.8823 0.5672 14.5503 0.5672 14.1597V1.97217C0.5672 1.58154 0.703918 1.24951 0.977356 0.976074C1.25079 0.702637 1.58282 0.565918 1.97345 0.565918H14.1609ZM10.8797 2.90967V4.78467C10.8797 4.91162 10.9236 5.02393 11.0115 5.12158C11.1092 5.20947 11.2215 5.25342 11.3484 5.25342H13.2234C13.3504 5.25342 13.4578 5.20947 13.5457 5.12158C13.6434 5.02393 13.6922 4.91162 13.6922 4.78467V2.90967C13.6922 2.78271 13.6434 2.67529 13.5457 2.5874C13.4578 2.48975 13.3504 2.44092 13.2234 2.44092H11.3484C11.2215 2.44092 11.1092 2.48975 11.0115 2.5874C10.9236 2.67529 10.8797 2.78271 10.8797 2.90967ZM8.0672 5.25342C7.28595 5.25342 6.62189 5.53174 6.07501 6.08838C5.52814 6.63525 5.2547 7.29443 5.2547 8.06592C5.2547 8.84717 5.52814 9.51123 6.07501 10.0581C6.63165 10.605 7.29572 10.8784 8.0672 10.8784C8.84845 10.8784 9.51251 10.605 10.0594 10.0581C10.6063 9.50146 10.8797 8.8374 10.8797 8.06592C10.8797 7.28467 10.6014 6.62061 10.0447 6.07373C9.49786 5.52686 8.83868 5.25342 8.0672 5.25342ZM13.6922 13.2222V7.12842H12.6668C12.6961 7.2749 12.7156 7.43115 12.7254 7.59717C12.7449 7.75342 12.7547 7.90967 12.7547 8.06592C12.7547 8.71045 12.6326 9.3208 12.3885 9.89697C12.1443 10.4634 11.8074 10.9614 11.3777 11.3911C10.9578 11.811 10.4598 12.1431 9.88361 12.3872C9.3172 12.6313 8.71173 12.7534 8.0672 12.7534C7.42267 12.7534 6.81232 12.6313 6.23615 12.3872C5.66974 12.1431 5.17169 11.811 4.742 11.3911C4.32208 10.9614 3.99005 10.4634 3.74591 9.89697C3.50177 9.3208 3.3797 8.71045 3.3797 8.06592C3.3797 7.8999 3.38458 7.73877 3.39435 7.58252C3.41388 7.42627 3.43829 7.2749 3.46759 7.12842H2.4422V13.2222C2.4422 13.3491 2.48615 13.4614 2.57404 13.5591C2.67169 13.647 2.784 13.6909 2.91095 13.6909H13.2234C13.3504 13.6909 13.4578 13.647 13.5457 13.5591C13.6434 13.4614 13.6922 13.3491 13.6922 13.2222Z" fill="#A5A5A5"/>
</svg>
