<svg width="44" height="36" viewBox="0 0 44 36" fill="none" xmlns="http://www.w3.org/2000/svg">
<path d="M2.41651 2.94653L3.61651 3.34653C5.6731 4.06108 7.86925 4.28035 10.0265 3.98653C12.2934 3.63474 14.6136 3.94735 16.7065 4.88653C17.816 5.35898 18.7898 6.10145 19.539 7.04634C20.2883 7.99124 20.7893 9.10854 20.9965 10.2965C21.2072 11.439 21.1857 12.6122 20.9331 13.7461C20.6806 14.8801 20.2022 15.9515 19.5265 16.8965C19.5865 17.1065 19.6465 17.3165 19.6965 17.5265C20.1027 19.2536 20.3041 21.0224 20.2965 22.7965H18.2965C18.2025 21.3444 18.0053 19.9007 17.7065 18.4765C16.3191 19.2257 14.7632 19.6078 13.1865 19.5865C11.716 19.5855 10.2607 19.2897 8.90651 18.7165C1.29651 15.4665 2.29651 4.65653 2.29651 4.20653L2.41651 2.94653ZM9.68651 16.8765C12.2965 17.9865 15.4165 17.7965 17.1665 16.4265C16.8707 15.4376 16.4649 14.4849 15.9565 13.5865C15.5613 12.9399 15.0951 12.3396 14.5665 11.7965C14.0264 11.2477 13.4181 10.7705 12.7565 10.3765C11.3894 9.55908 9.87331 9.02198 8.29651 8.79653V7.79653C10.1107 7.73373 11.9138 8.10395 13.5565 8.87653C15.2361 9.69608 16.6605 10.958 17.6765 12.5265C18.0533 13.1256 18.3875 13.7505 18.6765 14.3965C19.14 13.2109 19.2714 11.9213 19.0565 10.6665C18.9157 9.78807 18.5536 8.95991 18.0043 8.2601C17.4549 7.56029 16.7364 7.01187 15.9165 6.66653C14.7209 6.10769 13.4163 5.82081 12.0965 5.82653C11.4765 5.82653 10.8665 5.88653 10.2265 5.93653C8.22219 6.19514 6.18717 6.07643 4.22651 5.58653C4.29651 8.34653 4.79651 14.7965 9.68651 16.8765Z" fill="#17C548"/>
<g clip-path="url(#clip0_1_1547)">
<path d="M24.0412 25.7344C35.6853 28.4431 38.9265 18.7556 40.0966 14.0657C40.1271 13.9379 40.1316 13.8052 40.1099 13.6755C40.0881 13.5458 40.0406 13.4218 39.9702 13.3109C39.8997 13.1999 39.8076 13.1042 39.6995 13.0294C39.5914 12.9546 39.4693 12.9023 39.3406 12.8755C22.7237 9.33027 20.8576 17.3521 19.1712 24.6015L18.2649 28.4975" stroke="#17C548" stroke-width="2" stroke-linecap="round" stroke-linejoin="round"/>
<path d="M19.1712 24.6014C19.1712 24.6014 20.5307 18.7574 28.5492 19.5961" stroke="#17C548" stroke-width="2" stroke-linecap="round" stroke-linejoin="round"/>
</g>
<defs>
<clipPath id="clip0_1_1547">
<rect width="24" height="24" fill="white" transform="translate(20.3276 6.38989) rotate(13.0957)"/>
</clipPath>
</defs>
</svg>
