<svg width="16" height="16" viewBox="0 0 16 16" fill="none" xmlns="http://www.w3.org/2000/svg">
<path d="M2.53986 2.32373C4.08673 0.776855 5.95001 0.00341797 8.1297 0.00341797C10.3094 0.00341797 12.1609 0.776855 13.6844 2.32373C15.2313 3.84717 16.0047 5.69873 16.0047 7.87842C16.0047 10.0581 15.2313 11.9214 13.6844 13.4683C12.1609 14.9917 10.3094 15.7534 8.1297 15.7534C7.33282 15.7534 6.58282 15.6479 5.8797 15.437C6.30157 14.687 6.57111 14.1245 6.68829 13.7495L7.25079 11.5698C7.60236 12.2261 8.23517 12.5542 9.14923 12.5542C10.4149 12.5542 11.4344 12.0503 12.2078 11.0425C13.0047 10.0347 13.4031 8.74561 13.4031 7.17529C13.4031 5.95654 12.9344 4.90186 11.9969 4.01123C11.0594 3.09717 9.86407 2.64014 8.41095 2.64014C6.67657 2.64014 5.30548 3.15576 4.29767 4.18701C3.28986 5.19482 2.78595 6.31982 2.78595 7.56201C2.78595 9.13232 3.32501 10.1401 4.40314 10.5854C4.61407 10.6792 4.7547 10.6089 4.82501 10.3745C4.82501 10.3276 4.83673 10.2222 4.86017 10.0581C4.90704 9.89404 4.9422 9.78857 4.96564 9.7417C5.01251 9.60107 4.97736 9.46045 4.86017 9.31982C4.50861 8.89795 4.33282 8.38232 4.33282 7.77295C4.33282 6.7417 4.68439 5.86279 5.38751 5.13623C6.11407 4.38623 7.05157 4.01123 8.20001 4.01123C9.23126 4.01123 10.0399 4.29248 10.6258 4.85498C11.2117 5.39404 11.5047 6.10889 11.5047 6.99951C11.5047 8.17139 11.2703 9.16748 10.8016 9.98779C10.3328 10.7847 9.73517 11.1831 9.00861 11.1831C8.58673 11.1831 8.24689 11.0425 7.98907 10.7612C7.73126 10.4565 7.64923 10.0933 7.74298 9.67139C7.78986 9.43701 7.87189 9.12061 7.98907 8.72217C8.1297 8.32373 8.23517 7.97217 8.30548 7.66748C8.39923 7.36279 8.44611 7.10498 8.44611 6.89404C8.44611 6.56592 8.35236 6.28467 8.16486 6.05029C7.97736 5.81592 7.71954 5.69873 7.39142 5.69873C6.96954 5.69873 6.60626 5.89795 6.30157 6.29639C6.02032 6.67139 5.8797 7.15186 5.8797 7.73779C5.8797 7.94873 5.90314 8.15967 5.95001 8.37061C5.99689 8.58154 6.04376 8.74561 6.09064 8.86279L6.12579 9.00342C5.53986 11.4409 5.20001 12.8706 5.10626 13.2925C4.96564 13.855 4.91876 14.4526 4.96564 15.0854C3.55939 14.4526 2.42267 13.4917 1.55548 12.2026C0.688293 10.9136 0.2547 9.47217 0.2547 7.87842C0.2547 5.69873 1.01642 3.84717 2.53986 2.32373Z" fill="#A5A5A5"/>
</svg>
