<svg width="19" height="18" viewBox="0 0 19 18" fill="none" xmlns="http://www.w3.org/2000/svg">
<g clip-path="url(#clip0_3_1679)">
<path d="M0.775635 0.75H4.34863L6.59863 9H14.4849L16.8016 2.05125L18.2244 2.526L15.5656 10.5H6.61063L6.23563 12H17.2756V13.5H4.31563L5.25013 9.75825L3.20263 2.25H0.775635V0.75ZM11.2756 1.5V3.75H13.5256V5.25H11.2756V7.5H9.77563V5.25H7.52563V3.75H9.77563V1.5H11.2756ZM3.77563 15.75C3.77563 15.3522 3.93367 14.9706 4.21497 14.6893C4.49628 14.408 4.87781 14.25 5.27563 14.25C5.67346 14.25 6.05499 14.408 6.33629 14.6893C6.6176 14.9706 6.77563 15.3522 6.77563 15.75C6.77563 16.1478 6.6176 16.5294 6.33629 16.8107C6.05499 17.092 5.67346 17.25 5.27563 17.25C4.87781 17.25 4.49628 17.092 4.21497 16.8107C3.93367 16.5294 3.77563 16.1478 3.77563 15.75ZM14.2756 15.75C14.2756 15.3522 14.4337 14.9706 14.715 14.6893C14.9963 14.408 15.3778 14.25 15.7756 14.25C16.1735 14.25 16.555 14.408 16.8363 14.6893C17.1176 14.9706 17.2756 15.3522 17.2756 15.75C17.2756 16.1478 17.1176 16.5294 16.8363 16.8107C16.555 17.092 16.1735 17.25 15.7756 17.25C15.3778 17.25 14.9963 17.092 14.715 16.8107C14.4337 16.5294 14.2756 16.1478 14.2756 15.75Z" fill="black"/>
</g>
<defs>
<clipPath id="clip0_3_1679">
<rect width="17.4487" height="16.5" fill="white" transform="translate(0.775635 0.75)"/>
</clipPath>
</defs>
</svg>
