<svg width="55" height="44" viewBox="0 0 55 44" fill="none" xmlns="http://www.w3.org/2000/svg">
<path d="M54.3034 21.1819L48.4909 7.61937C48.3426 7.26917 48.0944 6.97037 47.7775 6.76021C47.4605 6.55004 47.0887 6.43781 46.7084 6.4375H40.8959V2.5625C40.8959 2.04864 40.6917 1.55583 40.3284 1.19248C39.965 0.829129 39.4722 0.625 38.9584 0.625H2.14587C1.63202 0.625 1.13921 0.829129 0.775855 1.19248C0.412503 1.55583 0.208374 2.04864 0.208374 2.5625V35.5C0.208374 36.0139 0.412503 36.5067 0.775855 36.87C1.13921 37.2334 1.63202 37.4375 2.14587 37.4375H6.29212C6.7383 39.0793 7.71231 40.5286 9.0639 41.5619C10.4155 42.5952 12.0695 43.1551 13.7709 43.1551C15.4722 43.1551 17.1263 42.5952 18.4778 41.5619C19.8294 40.5286 20.8035 39.0793 21.2496 37.4375H33.4171C33.8633 39.0793 34.8373 40.5286 36.1889 41.5619C37.5405 42.5952 39.1945 43.1551 40.8959 43.1551C42.5972 43.1551 44.2513 42.5952 45.6028 41.5619C46.9544 40.5286 47.9285 39.0793 48.3746 37.4375H52.5209C53.0347 37.4375 53.5275 37.2334 53.8909 36.87C54.2542 36.5067 54.4584 36.0139 54.4584 35.5V21.9375C54.4579 21.6778 54.4052 21.4208 54.3034 21.1819ZM40.8959 10.3125H45.4296L49.5759 20H40.8959V10.3125ZM13.7709 39.375C13.0045 39.375 12.2553 39.1477 11.618 38.7219C10.9808 38.2962 10.4841 37.691 10.1908 36.9829C9.89755 36.2748 9.82081 35.4957 9.97033 34.744C10.1198 33.9923 10.4889 33.3019 11.0308 32.76C11.5728 32.218 12.2632 31.849 13.0149 31.6995C13.7666 31.5499 14.5457 31.6267 15.2538 31.92C15.9618 32.2133 16.567 32.7099 16.9928 33.3472C17.4186 33.9844 17.6459 34.7336 17.6459 35.5C17.6459 36.5277 17.2376 37.5133 16.5109 38.24C15.7842 38.9667 14.7986 39.375 13.7709 39.375ZM33.4171 33.5625H21.2496C20.8035 31.9207 19.8294 30.4714 18.4778 29.4381C17.1263 28.4048 15.4722 27.8449 13.7709 27.8449C12.0695 27.8449 10.4155 28.4048 9.0639 29.4381C7.71231 30.4714 6.7383 31.9207 6.29212 33.5625H4.08337V4.5H37.0209V28.835C36.1386 29.3471 35.3661 30.0282 34.7477 30.8395C34.1293 31.6507 33.6771 32.5761 33.4171 33.5625ZM40.8959 39.375C40.1295 39.375 39.3803 39.1477 38.743 38.7219C38.1058 38.2962 37.6091 37.691 37.3158 36.9829C37.0226 36.2748 36.9458 35.4957 37.0953 34.744C37.2448 33.9923 37.6139 33.3019 38.1558 32.76C38.6978 32.218 39.3882 31.849 40.1399 31.6995C40.8916 31.5499 41.6707 31.6267 42.3788 31.92C43.0868 32.2133 43.692 32.7099 44.1178 33.3472C44.5436 33.9844 44.7709 34.7336 44.7709 35.5C44.7709 36.5277 44.3626 37.5133 43.6359 38.24C42.9092 38.9667 41.9236 39.375 40.8959 39.375ZM50.5834 33.5625H48.3746C47.9462 31.9031 46.9798 30.4325 45.6266 29.3808C44.2734 28.3291 42.6097 27.7556 40.8959 27.75V23.875H50.5834V33.5625Z" fill="white"/>
</svg>
