<svg width="18" height="14" viewBox="0 0 18 14" fill="none" xmlns="http://www.w3.org/2000/svg">
<path d="M17.5359 1.74561C17.1141 2.40186 16.5516 2.98779 15.8484 3.50342V3.92529C15.8484 6.38623 14.9578 8.62451 13.1766 10.6401C11.4188 12.6323 9.07501 13.6284 6.14532 13.6284C4.27032 13.6284 2.53595 13.1128 0.9422 12.0815C1.3172 12.1284 1.58673 12.1519 1.75079 12.1519C3.32111 12.1519 4.72736 11.6597 5.96954 10.6753C5.24298 10.6519 4.58673 10.4292 4.00079 10.0073C3.41486 9.56201 3.01642 8.99951 2.80548 8.31982C3.08673 8.3667 3.29767 8.39014 3.43829 8.39014C3.67267 8.39014 3.97736 8.34326 4.35236 8.24951C3.57892 8.08545 2.92267 7.69873 2.38361 7.08936C1.86798 6.45654 1.61017 5.72998 1.61017 4.90967V4.87451C2.12579 5.15576 2.64142 5.29639 3.15704 5.29639C2.14923 4.64014 1.64532 3.69092 1.64532 2.44873C1.64532 1.86279 1.79767 1.30029 2.10236 0.76123C3.90704 2.98779 6.23907 4.17139 9.09845 4.31201C9.05157 4.14795 9.02814 3.89014 9.02814 3.53857C9.02814 2.57764 9.35626 1.76904 10.0125 1.11279C10.6688 0.456543 11.4774 0.128418 12.4383 0.128418C13.3992 0.128418 14.2195 0.491699 14.8992 1.21826C15.6024 1.10107 16.3289 0.819824 17.0789 0.374512C16.8445 1.19482 16.3406 1.82764 15.5672 2.27295C16.2938 2.20264 16.95 2.02686 17.5359 1.74561Z" fill="#A5A5A5"/>
</svg>
