<svg width="25" height="25" viewBox="0 0 25 25" fill="none" xmlns="http://www.w3.org/2000/svg">
<path d="M19.5 4.64526H17.5V3.64526C17.5 3.38005 17.3946 3.12569 17.2071 2.93816C17.0196 2.75062 16.7652 2.64526 16.5 2.64526C16.2348 2.64526 15.9804 2.75062 15.7929 2.93816C15.6054 3.12569 15.5 3.38005 15.5 3.64526V4.64526H9.5V3.64526C9.5 3.38005 9.39464 3.12569 9.20711 2.93816C9.01957 2.75062 8.76522 2.64526 8.5 2.64526C8.23478 2.64526 7.98043 2.75062 7.79289 2.93816C7.60536 3.12569 7.5 3.38005 7.5 3.64526V4.64526H5.5C4.70435 4.64526 3.94129 4.96133 3.37868 5.52394C2.81607 6.08655 2.5 6.84961 2.5 7.64526V19.6453C2.5 20.4409 2.81607 21.204 3.37868 21.7666C3.94129 22.3292 4.70435 22.6453 5.5 22.6453H19.5C20.2956 22.6453 21.0587 22.3292 21.6213 21.7666C22.1839 21.204 22.5 20.4409 22.5 19.6453V7.64526C22.5 6.84961 22.1839 6.08655 21.6213 5.52394C21.0587 4.96133 20.2956 4.64526 19.5 4.64526ZM20.5 19.6453C20.5 19.9105 20.3946 20.1648 20.2071 20.3524C20.0196 20.5399 19.7652 20.6453 19.5 20.6453H5.5C5.23478 20.6453 4.98043 20.5399 4.79289 20.3524C4.60536 20.1648 4.5 19.9105 4.5 19.6453V12.6453H20.5V19.6453ZM20.5 10.6453H4.5V7.64526C4.5 7.38005 4.60536 7.12569 4.79289 6.93816C4.98043 6.75062 5.23478 6.64526 5.5 6.64526H7.5V7.64526C7.5 7.91048 7.60536 8.16483 7.79289 8.35237C7.98043 8.53991 8.23478 8.64526 8.5 8.64526C8.76522 8.64526 9.01957 8.53991 9.20711 8.35237C9.39464 8.16483 9.5 7.91048 9.5 7.64526V6.64526H15.5V7.64526C15.5 7.91048 15.6054 8.16483 15.7929 8.35237C15.9804 8.53991 16.2348 8.64526 16.5 8.64526C16.7652 8.64526 17.0196 8.53991 17.2071 8.35237C17.3946 8.16483 17.5 7.91048 17.5 7.64526V6.64526H19.5C19.7652 6.64526 20.0196 6.75062 20.2071 6.93816C20.3946 7.12569 20.5 7.38005 20.5 7.64526V10.6453Z" fill="#828282"/>
</svg>
