<svg width="25" height="25" viewBox="0 0 25 25" fill="none" xmlns="http://www.w3.org/2000/svg">
<path d="M19.5 6.14529H13.22L12.9 5.14529C12.6926 4.55852 12.3077 4.05079 11.7989 3.69245C11.2901 3.3341 10.6824 3.14289 10.06 3.14529H5.5C4.70435 3.14529 3.94129 3.46136 3.37868 4.02397C2.81607 4.58657 2.5 5.34964 2.5 6.14529V19.1453C2.5 19.9409 2.81607 20.704 3.37868 21.2666C3.94129 21.8292 4.70435 22.1453 5.5 22.1453H19.5C20.2956 22.1453 21.0587 21.8292 21.6213 21.2666C22.1839 20.704 22.5 19.9409 22.5 19.1453V9.14529C22.5 8.34964 22.1839 7.58658 21.6213 7.02397C21.0587 6.46136 20.2956 6.14529 19.5 6.14529ZM20.5 19.1453C20.5 19.4105 20.3946 19.6649 20.2071 19.8524C20.0196 20.0399 19.7652 20.1453 19.5 20.1453H5.5C5.23478 20.1453 4.98043 20.0399 4.79289 19.8524C4.60536 19.6649 4.5 19.4105 4.5 19.1453V6.14529C4.5 5.88007 4.60536 5.62572 4.79289 5.43818C4.98043 5.25064 5.23478 5.14529 5.5 5.14529H10.06C10.2696 5.14474 10.4742 5.2101 10.6446 5.33213C10.8151 5.45415 10.9429 5.62666 11.01 5.82529L11.55 7.46529C11.6171 7.66391 11.7449 7.83642 11.9154 7.95844C12.0858 8.08047 12.2904 8.14583 12.5 8.14529H19.5C19.7652 8.14529 20.0196 8.25064 20.2071 8.43818C20.3946 8.62572 20.5 8.88007 20.5 9.14529V19.1453Z" fill="#828282"/>
</svg>
