<svg width="15" height="15" viewBox="0 0 15 15" fill="none" xmlns="http://www.w3.org/2000/svg">
<path d="M13.875 5.53333L9.84167 5.18333L8.26667 1.475C7.98333 0.8 7.01667 0.8 6.73333 1.475L5.15833 5.19167L1.13333 5.53333C0.4 5.59167 0.0999994 6.50833 0.658333 6.99167L3.71667 9.64167L2.8 13.575C2.63333 14.2917 3.40833 14.8583 4.04167 14.475L7.5 12.3917L10.9583 14.4833C11.5917 14.8667 12.3667 14.3 12.2 13.5833L11.2833 9.64167L14.3417 6.99167C14.9 6.50833 14.6083 5.59167 13.875 5.53333ZM7.5 10.8333V3.08333L8.925 6.45L12.575 6.76667L9.80833 9.16667L10.6417 12.7333L7.5 10.8333Z" fill="#FFC43F"/>
</svg>
