<svg width="18" height="14" viewBox="0 0 18 14" fill="none" xmlns="http://www.w3.org/2000/svg">
<path d="M17.8992 3.1167C17.9695 4.38232 18.0047 5.63623 18.0047 6.87842C18.0047 8.12061 17.9695 9.37451 17.8992 10.6401C17.8992 11.437 17.6414 12.1167 17.1258 12.6792C16.6336 13.2183 16.0242 13.4878 15.2977 13.4878C13.493 13.5815 11.3953 13.6284 9.0047 13.6284C6.61407 13.6284 4.51642 13.5815 2.71173 13.4878C1.98517 13.4878 1.36407 13.2183 0.84845 12.6792C0.356262 12.1167 0.110168 11.437 0.110168 10.6401C0.039856 9.37451 0.00469971 8.12061 0.00469971 6.87842C0.00469971 6.05811 0.0515747 4.8042 0.145325 3.1167C0.145325 2.31982 0.391418 1.65186 0.883606 1.11279C1.37579 0.550293 1.98517 0.269043 2.71173 0.269043C4.42267 0.175293 6.41486 0.128418 8.68829 0.128418H9.0047H9.32111C11.5945 0.128418 13.5867 0.175293 15.2977 0.269043C16.0242 0.269043 16.6336 0.550293 17.1258 1.11279C17.6414 1.65186 17.8992 2.31982 17.8992 3.1167ZM7.28204 10.3237L12.3797 6.87842L7.28204 3.39795V10.3237Z" fill="#A5A5A5"/>
</svg>
