<?xml version="1.0" standalone="no"?>
<!DOCTYPE svg PUBLIC "-//W3C//DTD SVG 20010904//EN"
 "http://www.w3.org/TR/2001/REC-SVG-20010904/DTD/svg10.dtd">
<svg version="1.0" xmlns="http://www.w3.org/2000/svg"
 width="64.000000pt" height="64.000000pt" viewBox="0 0 64.000000 64.000000"
 preserveAspectRatio="xMidYMid meet">

<g transform="translate(0.000000,64.000000) scale(0.100000,-0.100000)"
fill="#FFC01E" stroke="none">
<path d="M226 584 c-70 -22 -149 -103 -170 -174 -33 -112 -11 -206 67 -284
169 -168 450 -68 474 169 17 161 -119 307 -281 304 -23 0 -63 -7 -90 -15z
m194 -152 c13 -10 23 -33 27 -59 5 -35 2 -45 -20 -67 -21 -21 -36 -26 -77 -26
-38 0 -50 -4 -50 -15 0 -9 9 -15 25 -15 18 0 25 -5 25 -20 0 -15 -7 -20 -25
-20 -18 0 -25 -5 -25 -20 0 -15 -7 -20 -25 -20 -18 0 -25 5 -25 20 0 11 -7 20
-15 20 -8 0 -15 9 -15 20 0 11 7 20 15 20 8 0 15 7 15 15 0 8 -7 15 -15 15 -8
0 -15 9 -15 20 0 11 7 20 15 20 12 0 15 14 15 65 l0 65 74 0 c56 0 79 -4 96
-18z"/>
<path d="M290 365 l0 -45 48 0 c52 0 72 12 72 45 0 33 -20 45 -72 45 l-48 0 0
-45z"/>
</g>
</svg>
